<svg version="1.1" id="Layer_1" xmlns="http://www.w3.org/2000/svg" xmlns:xlink="http://www.w3.org/1999/xlink" x="0px" y="0px"
	 width="100%" viewBox="0 0 152 152" enable-background="new 0 0 152 152" xml:space="preserve">
<path fill="#000000" opacity="1.000000" stroke="none" 
	d="
M77.000000,153.000000 
	C51.333336,153.000000 26.166672,153.000000 1.000005,153.000000 
	C1.000000,103.500008 1.033618,53.999939 0.916825,4.500223 
	C0.909787,1.517348 1.517100,0.909480 4.500175,0.916743 
	C52.833214,1.034417 101.166710,1.034407 149.499756,0.916760 
	C152.482620,0.909499 153.090530,1.517029 153.083267,4.500157 
	C152.965591,52.833199 152.965591,101.166695 153.083237,149.499741 
	C153.090500,152.482559 152.485153,153.104996 149.499512,153.085907 
	C125.500473,152.932419 101.500023,153.000000 77.000000,153.000000 
z"/>
<path fill="#E73A00" opacity="1.000000" stroke="none" 
	d="
M29.409212,111.234558 
	C14.942525,101.903481 18.035984,78.368835 28.023886,67.427361 
	C37.140137,57.440750 48.716328,53.613415 61.788582,52.969009 
	C67.773056,52.674000 73.654274,53.930237 79.579048,53.935955 
	C100.294968,53.955948 117.996117,46.687309 132.124130,31.317499 
	C133.536606,29.780874 134.570709,27.896435 135.983368,25.884352 
	C139.128937,29.451777 138.911774,34.085629 139.811661,38.141209 
	C142.863144,51.893276 143.958405,65.936119 142.870483,79.949974 
	C141.719864,94.771553 136.626099,108.179031 124.560799,117.809990 
	C118.961838,122.279289 112.033798,123.872498 105.040451,125.018448 
	C92.341759,127.099289 79.794746,125.370972 67.147903,124.222008 
	C60.939087,123.657936 54.655972,123.057510 47.903164,122.890701 
	C47.607479,120.015274 49.770145,119.335014 51.896393,118.894905 
	C62.007309,116.802078 72.243462,114.336754 82.509750,114.863365 
	C97.707764,115.642944 107.502022,108.499634 114.551575,96.160004 
	C118.857712,88.622505 122.618355,80.816330 124.157867,71.617668 
	C115.451454,80.453850 105.580070,86.145325 93.198036,86.330475 
	C86.368584,86.432602 79.536156,86.263367 72.708183,86.397476 
	C66.384315,86.521675 60.096409,87.209694 53.863419,88.281769 
	C43.433083,90.075806 36.278011,95.716309 33.053932,106.039238 
	C32.443146,107.994858 32.386318,110.479027 29.409212,111.234558 
z"/>
<path fill="#FBBB05" opacity="1.000000" stroke="none" 
	d="
M29.173429,111.495468 
	C29.281519,110.773903 29.661797,110.380325 29.768286,109.923004 
	C33.642555,93.284332 42.229336,86.197182 59.199703,84.891197 
	C69.334877,84.111221 79.468849,83.753136 89.601852,84.018105 
	C103.837135,84.390350 115.082077,78.907921 123.783875,67.818710 
	C124.496323,66.910797 125.317162,66.087921 126.422760,64.850418 
	C127.660042,67.130241 127.226456,69.321541 126.837715,71.220589 
	C124.054817,84.815201 118.529343,97.106087 109.138092,107.511421 
	C103.203514,114.086800 95.902252,117.081810 87.022102,117.073944 
	C73.842987,117.062263 60.907558,119.257736 47.774651,122.583275 
	C47.427551,122.809700 47.456154,122.855255 47.433533,122.839493 
	C46.537853,123.632378 45.404732,123.431656 43.981827,123.715652 
	C39.540909,124.316971 35.546955,124.983665 31.775347,127.898560 
	C34.668209,121.802055 34.661934,116.302406 29.173429,111.495468 
z"/>
<path fill="#4285F4" opacity="1.000000" stroke="none" 
	d="
M21.387234,112.162621 
	C25.601721,114.369720 28.648228,117.099152 27.906168,121.935158 
	C27.051943,127.502144 21.489603,130.636902 15.980282,128.934296 
	C12.259724,127.784477 9.792048,121.626778 11.302843,117.242035 
	C12.930330,112.518623 16.755781,111.882179 21.387234,112.162621 
z"/>
<path fill="#E73A00" opacity="1.000000" stroke="none" 
	d="
M44.014320,123.884277 
	C44.401798,122.941010 45.476006,122.782570 46.998196,122.771698 
	C46.725975,124.014023 45.570786,123.955437 44.014320,123.884277 
z"/>
</svg>